<?xml version="1.0" encoding="UTF-8"?>
<svg width="30px" height="24px" viewBox="0 0 30 24" version="1.1" xmlns="http://www.w3.org/2000/svg" xmlns:xlink="http://www.w3.org/1999/xlink">
    <!-- Generator: Sketch 42 (36781) - http://www.bohemiancoding.com/sketch -->
    <title>M</title>
    <desc>Created with Sketch.</desc>
    <defs></defs>
    <g id="Designs-Desktop" stroke="none" stroke-width="1" fill="none" fill-rule="evenodd">
        <g id="Blankets" transform="translate(-705.000000, -922.000000)" fill="#1D1C1B">
            <g id="Details" transform="translate(0.000000, 789.000000)">
                <path d="M721.155356,133.762916 C722.376901,134.56541 723.444125,135.541769 724.346504,136.706589 C724.392099,136.76497 724.496316,136.794417 724.576483,136.802355 C724.91544,136.835131 725.259657,136.829242 725.594855,136.883014 C728.950596,137.42151 731.240867,140.126022 731.260909,143.594363 C731.276692,146.324737 731.264416,149.055623 731.265669,151.78651 C731.265919,152.893716 731.251639,154.00169 731.274186,155.10864 C731.300742,156.425047 732.492224,157.288484 733.706253,156.896455 C734.512182,156.636041 734.999948,155.891929 734.999948,154.905328 C735.0007,151.370667 734.992933,147.835751 734.999698,144.30109 C735.001952,143.083778 734.940825,141.881061 734.60738,140.699598 C732.821911,134.370036 726.729719,132.090072 722.14116,133.320699 C721.787423,133.415442 721.441703,133.540655 721.064918,133.660492 C721.117778,133.720922 721.132559,133.748064 721.155356,133.762916 M705.024251,142.948066 C705.093145,140.145995 706.202957,137.814307 708.164293,135.896669 C709.666923,134.427649 711.448886,133.484578 713.511933,133.160149 C719.023415,132.29364 724.017569,135.591957 725.340074,141.167933 C725.596859,142.250301 725.595857,143.347264 725.596358,144.446789 C725.59711,146.707804 725.57807,148.969075 725.601369,151.229834 C725.631932,154.19476 723.535064,156.40277 720.951682,156.90132 C717.791849,157.511256 714.755524,155.224379 714.433603,151.95679 C714.329887,150.903613 714.352184,149.83584 714.34567,148.774469 C714.334647,147.006626 714.348676,145.238784 714.348927,143.470942 C714.349178,141.470084 714.898071,139.631313 715.903165,137.924413 C715.982079,137.790237 716.079532,137.752596 716.217319,137.783067 C717.363708,138.036311 718.390847,138.528716 719.259908,139.34811 C719.407966,139.487407 719.349344,139.593672 719.262162,139.719142 C718.814981,140.360829 718.447966,141.048352 718.292893,141.822936 C718.183165,142.369369 718.098739,142.931422 718.094229,143.487329 C718.073687,146.044095 718.082204,148.601116 718.087215,151.157881 C718.088968,152.150884 718.649386,152.907799 719.513185,153.143631 C720.442622,153.397643 721.861327,152.726764 721.854062,151.345829 C721.839782,148.614943 721.848049,145.883545 721.827757,143.152658 C721.813477,141.22657 721.022079,139.652822 719.590847,138.439095 C715.748843,135.180724 710.604877,137.094264 709.111516,141.169725 C708.799867,142.019846 708.700159,142.903255 708.699658,143.804589 C708.697905,147.45422 708.767049,151.103852 708.756276,154.753228 C708.755525,155.060244 708.72947,155.380064 708.643541,155.671717 C708.384251,156.552566 707.616402,157.067503 706.743082,156.987869 C705.852477,156.906441 705.149011,156.241452 705.062832,155.326291 C705.00421,154.70176 704.976652,144.87441 705.024251,142.948066" id="M"></path>
            </g>
        </g>
    </g>
</svg>